G04 (created by PCBNEW (2013-07-07 BZR 4022)-stable) date 10/22/2013 11:34:47 AM*
%MOIN*%
G04 Gerber Fmt 3.4, Leading zero omitted, Abs format*
%FSLAX34Y34*%
G01*
G70*
G90*
G04 APERTURE LIST*
%ADD10C,0.00590551*%
%ADD11C,0.00393701*%
%ADD12R,0.055X0.055*%
%ADD13C,0.055*%
%ADD14C,0.1*%
%ADD15R,0.0708661X0.0393701*%
%ADD16C,0.035*%
%ADD17C,0.02*%
%ADD18C,0.01*%
G04 APERTURE END LIST*
G54D10*
G54D11*
X16000Y-13000D02*
G75*
G03X16250Y-13250I250J0D01*
G74*
G01*
X16250Y-8750D02*
G75*
G03X16000Y-9000I0J-250D01*
G74*
G01*
X23000Y-9000D02*
G75*
G03X22750Y-8750I-250J0D01*
G74*
G01*
X22750Y-13250D02*
G75*
G03X23000Y-13000I0J250D01*
G74*
G01*
X16250Y-13250D02*
X22750Y-13250D01*
X22750Y-8750D02*
X16250Y-8750D01*
X23000Y-13000D02*
X23000Y-9000D01*
X23000Y-11000D02*
X23000Y-13000D01*
X16000Y-13000D02*
X16000Y-9000D01*
X16000Y-9250D02*
X16000Y-13000D01*
X16000Y-11000D02*
X16000Y-9250D01*
G54D12*
X18500Y-12750D03*
G54D13*
X19500Y-12750D03*
X20500Y-12750D03*
G54D12*
X18500Y-9250D03*
G54D13*
X19500Y-9250D03*
X20500Y-9250D03*
G54D14*
X16750Y-11000D03*
X22250Y-11000D03*
G54D15*
X20511Y-11614D03*
X20511Y-10984D03*
X20511Y-10354D03*
X18543Y-10354D03*
X18543Y-10984D03*
X18543Y-11614D03*
G54D16*
X19600Y-11600D03*
X20000Y-10000D03*
G54D17*
X19585Y-11614D02*
X18543Y-11614D01*
X19600Y-11600D02*
X19585Y-11614D01*
G54D18*
X19500Y-9250D02*
X19500Y-10900D01*
X19500Y-10900D02*
X19584Y-10984D01*
X19584Y-10984D02*
X20511Y-10984D01*
X19984Y-10984D02*
X20511Y-10984D01*
X19984Y-10984D02*
X20511Y-10984D01*
X20511Y-11614D02*
X20511Y-11938D01*
X19650Y-12100D02*
X19500Y-12250D01*
X20350Y-12100D02*
X19650Y-12100D01*
X20511Y-11938D02*
X20350Y-12100D01*
X19500Y-12750D02*
X19500Y-12250D01*
G54D17*
X20511Y-10354D02*
X20354Y-10354D01*
X20354Y-10354D02*
X20000Y-10000D01*
X18500Y-12750D02*
X18050Y-12750D01*
X17615Y-10984D02*
X17615Y-12200D01*
X18050Y-12750D02*
X17615Y-12315D01*
X17615Y-12315D02*
X17615Y-12215D01*
X17615Y-12215D02*
X17600Y-12200D01*
X17600Y-12200D02*
X17615Y-12200D01*
X17600Y-9800D02*
X17600Y-9600D01*
X17950Y-9250D02*
X18500Y-9250D01*
X17600Y-9600D02*
X17950Y-9250D01*
X17615Y-10984D02*
X18543Y-10984D01*
X17600Y-11000D02*
X17615Y-10984D01*
X17600Y-9800D02*
X17600Y-11000D01*
M02*
